<svg id="Layer_1" data-name="Layer 1" xmlns="http://www.w3.org/2000/svg" viewBox="0 0 1500 1500"><defs><style>.cls-1{fill:#ff0048;}</style></defs><title>bread-2</title><path class="cls-1" d="M764.52,782.52a47.41,47.41,0,1,0,47.41,47.41A47.46,47.46,0,0,0,764.52,782.52Zm0,79.82a32.41,32.41,0,1,1,32.41-32.41A32.44,32.44,0,0,1,764.52,862.34Z"/><path class="cls-1" d="M195.2,782.52a47.41,47.41,0,1,0,47.41,47.41A47.46,47.46,0,0,0,195.2,782.52Zm0,79.82a32.41,32.41,0,1,1,32.41-32.41A32.44,32.44,0,0,1,195.2,862.34Z"/><path class="cls-1" d="M954,644.15A150.1,150.1,0,0,0,928,631.7c16.93-13.63,42.11-44.44,42.11-107.05,0-49-11.76-92.32-35-128.64a7.5,7.5,0,1,0-12.64,8.08C944.13,438,955.1,478.52,955.1,524.65c0,33.94-8.28,62.43-23.94,82.41-11.74,15-23.67,20.08-23.75,20.11a7.5,7.5,0,0,0,1.23,14.29c.74.16,73.91,16.52,73.91,72.75a7.5,7.5,0,0,0,15,0C997.56,685.71,982.51,661.49,954,644.15Z"/><path class="cls-1" d="M1430.63,644.14a149.85,149.85,0,0,0-26.08-12.5,95.15,95.15,0,0,0,14.38-14.5c23-28.7,27.83-66.18,27.83-92.56,0-96.82-45.22-169.31-134.42-215.46-76.31-39.48-184.68-59.5-322.09-59.5l-476.57.14h-.12c-137.39,0-245.7,20-321.92,59.47C102.57,355.35,57.4,427.83,57.4,524.65c0,26.38,4.79,63.84,27.62,92.53a94.72,94.72,0,0,0,14.2,14.45A154.6,154.6,0,0,0,72.3,644.14C43.65,661.48,28,685.7,28,714.2v435c0,53.39,44.43,97.82,97.82,97.82H1341.55c73.22,0,132.45-60.57,132.45-133.79v-399C1474,685.71,1459.11,661.48,1430.63,644.14ZM1459,1113.21c0,65-52.5,118.79-117.45,118.79H939.28c34.78-20,57.72-58.22,57.72-101v-92.52a7.5,7.5,0,0,0-15,0V1131c0,55.15-44.31,101-99.46,101H125.82C80.7,1232,43,1194.3,43,1149.18v-435c0-23.18,12.69-42.37,36.74-57a139.54,139.54,0,0,1,38.45-15.72,7.63,7.63,0,0,0,6-6.67,7.45,7.45,0,0,0-4.58-7.61c-.47-.19-47.26-20.2-47.26-102.52,0-46.84,11.32-87.94,33.6-122.13,20.91-32.09,52.06-59,92.56-80,74.06-38.34,180.06-57.79,315-57.79h.13c148.07,0,260.93,23.3,335.44,69.25A7.5,7.5,0,0,0,857,321.25c-41.84-25.8-95.09-44.68-159.25-56.54l292.5-.09c135,0,241,19.45,315.2,57.82,40.55,21,71.74,47.89,92.68,80,22.32,34.21,33.64,75.3,33.64,122.14,0,33.94-8.27,62.44-23.92,82.43-11.73,15-23.65,20.09-23.73,20.13a7.5,7.5,0,0,0,1.23,14.28,138.41,138.41,0,0,1,37.79,15.73c23.9,14.66,35.85,33.86,35.85,57Z"/><path class="cls-1" d="M1291,632H1145a7.5,7.5,0,0,0,0,15h146a7.5,7.5,0,0,0,0-15Z"/><path class="cls-1" d="M579.07,787H332.92c-3.82,0-7,2.37-7.45,6.17-.36,3.23-8.3,79.37,35,127.82,22.55,25.2,54.67,37.85,95.48,37.85s72.93-12.84,95.48-38c43.35-48.45,35.41-124.37,35-127.6C586.1,789.4,582.89,787,579.07,787ZM540.29,911.23C520.71,933.12,492.35,944,456,944s-64.67-10.7-84.25-32.55C339.8,875.78,339.11,820,339.93,802H572.06C572.9,820,572.26,875.51,540.29,911.23Z"/></svg>