<svg id="Layer_1" data-name="Layer 1" xmlns="http://www.w3.org/2000/svg" viewBox="0 0 1500 1500"><defs><style>.cls-1{fill:#ff0048;}</style></defs><title>bread</title><path class="cls-1" d="M201.15,800.52a52.41,52.41,0,1,0,52.41,52.41A52.47,52.47,0,0,0,201.15,800.52Zm0,79.82a27.41,27.41,0,1,1,27.41-27.41A27.44,27.44,0,0,1,201.15,880.34Z"/><path class="cls-1" d="M766.52,800.52a52.41,52.41,0,1,0,52.41,52.41A52.47,52.47,0,0,0,766.52,800.52Zm0,79.82a27.41,27.41,0,1,1,27.41-27.41A27.44,27.44,0,0,1,766.52,880.34Z"/><path class="cls-1" d="M958.64,662.88a149.94,149.94,0,0,0-19.3-9.85c17.12-16.48,37.76-48.2,37.76-105.39,0-50-12-94.19-35.75-131.33a12.5,12.5,0,0,0-21.07,13.46c21.12,33.05,31.82,72.71,31.82,117.87,0,77.12-42,96.75-44.61,97.9a12.34,12.34,0,0,0-7.84,12.54,12.58,12.58,0,0,0,9.93,11.24,133.1,133.1,0,0,1,36.6,15.23c22.16,13.66,33.39,31.37,33.39,52.64a12.5,12.5,0,1,0,25,0C1004.56,706.87,988.68,681.18,958.64,662.88Z"/><path class="cls-1" d="M1435.23,662.87A149.64,149.64,0,0,0,1416,653a104.12,104.12,0,0,0,8.88-9.72c23.89-29.83,28.93-68.5,28.93-95.69,0-98.84-46.13-172.82-137.12-219.9-77-39.85-186.17-60.06-324.39-60.06l-476.57.14h-.12c-138.2,0-247.28,20.2-324.22,60-90.87,47-136.95,121-136.95,219.86,0,49.23,15.61,79.18,28.7,95.64a103.7,103.7,0,0,0,8.71,9.66,155.85,155.85,0,0,0-20.1,9.92C41.48,681.15,25,706.86,25,737.2v435C25,1228.32,71.68,1275,127.82,1275H1343.55c76,0,137.45-62.81,137.45-138.79v-399C1481,706.87,1465.28,681.17,1435.23,662.87ZM1456,1136.21c0,62.19-50.26,113.79-112.45,113.79H957.77c28.44-22,46.23-57.39,46.23-96v-92.52a12.5,12.5,0,0,0-25,0V1154c0,52.4-42.07,96-94.46,96H127.82C85.46,1250,50,1214.54,50,1172.18v-435c0-21.25,11.81-39,34.13-52.62a134.56,134.56,0,0,1,37.1-15.23,12.69,12.69,0,0,0,10.1-11.21,12.29,12.29,0,0,0-7.76-12.58c-2.63-1.16-44.2-20.83-44.2-97.91,0-45.86,11-86,32.79-119.4,20.44-31.36,50.95-57.69,90.67-78.25,73.35-38,178.57-57.23,312.73-57.23h.13c147.13,0,259.11,23,332.82,68.51A12.5,12.5,0,0,0,861.63,340q-48.22-29.74-116.06-47.3l246.69-.07c134.18,0,239.46,19.27,312.9,57.26,39.78,20.58,70.32,46.92,90.79,78.28,21.78,33.38,32.83,73.56,32.83,119.41,0,77.12-42,96.79-44.57,97.94a12.34,12.34,0,0,0-7.83,12.54,12.58,12.58,0,0,0,9.92,11.24,133.37,133.37,0,0,1,36.45,15.24c22.17,13.68,33.25,31.39,33.25,52.66Z"/><path class="cls-1" d="M1293,646H1147a12.5,12.5,0,0,0,0,25h146a12.5,12.5,0,0,0,0-25Z"/><path class="cls-1" d="M592.25,801H323.73l-1.24,10.62c-.37,3.32-8.54,81.61,36.29,131.7,23.54,26.3,56.92,39.52,99.21,39.52s75.67-13.4,99.21-39.7C602,893,593.86,815,593.49,811.65ZM538.57,926.9C520,947.68,492.87,958,458,958s-61.91-10.13-80.5-30.85C349.07,895.43,346.39,847,346.78,826H569.23C569.65,847,567,895.08,538.57,926.9Z"/></svg>