<svg id="Layer_1" data-name="Layer 1" xmlns="http://www.w3.org/2000/svg" viewBox="0 0 1500 1500"><defs><style>.cls-1{fill:#ed7ea1;}</style></defs><title>meat-smile</title><path class="cls-1" d="M610.19,1348.27A608.67,608.67,0,0,1,373.33,179.07a604.71,604.71,0,0,1,236.86-47.83A611.42,611.42,0,0,1,752.61,148,605.31,605.31,0,0,1,883,195.7a614.23,614.23,0,0,1,209.13,172.54,13,13,0,0,1-20.58,15.89,588.06,588.06,0,0,0-200.22-165.2,579.28,579.28,0,0,0-124.81-45.64,585.38,585.38,0,0,0-136.36-16,582.51,582.51,0,1,0,0,1165A582.5,582.5,0,0,0,1192.7,739.76a13,13,0,1,1,26,0,608,608,0,0,1-608.51,608.51Z"/><path class="cls-1" d="M668.37,1349.75c-36.59,0-58.59-1.48-59.1-1.52a13,13,0,0,1,1.83-25.94c1.15.08,116.4,7.81,260.59-13.05,84.41-12.21,162.08-31.69,230.85-57.9,85.47-32.57,157.32-75.66,213.54-128.08,48.66-45.37,86.39-98.53,112.13-158,28.69-66.3,43.24-142.16,43.24-225.49,0-76.09-13.53-146.14-40.21-208.19-24.07-56-59.42-106.8-105.06-151-55.76-54-127.93-99.39-214.5-134.83C1042.06,217.2,963,195,876.83,179.8c-147-26-265-22.6-266.22-22.56h-.42a13,13,0,0,1-.4-26c1.2,0,121.92-3.48,271.56,22.94,88,15.55,168.85,38.24,240.2,67.45,89.66,36.7,164.6,83.88,222.75,140.22,101.64,98.49,153.18,225.63,153.18,377.89,0,165.91-55.08,301.36-163.71,402.6-58.77,54.77-133.56,99.66-222.32,133.43-70.63,26.88-150.24,46.82-236.62,59.28A1472,1472,0,0,1,668.37,1349.75Z"/><path class="cls-1" d="M610.19,1304.36A562.88,562.88,0,1,1,830,1260,561.08,561.08,0,0,1,610.19,1304.36Zm0-1103.22a536.88,536.88,0,1,0,209.65,42.32A535.22,535.22,0,0,0,610.19,201.15Z"/><path class="cls-1" d="M1390.34,622.27a13,13,0,0,1-12.88-11.37c-9.51-75-31.53-141.73-65.43-198.21a406.27,406.27,0,0,0-102.88-115c-70.13-53.27-135.35-66.76-136-66.89a13,13,0,1,1,5.09-25.5c2.9.58,71.79,14.83,146.63,71.68a432.17,432.17,0,0,1,109.45,122.36c35.77,59.58,59,129.67,68.93,208.32A13,13,0,0,1,1392,622.16,13.13,13.13,0,0,1,1390.34,622.27Z"/><path class="cls-1" d="M1297.95,622.27a13,13,0,0,1-13-13c0-66.86-16.21-129.83-48.19-187.15C1211.06,376,1175.13,333.36,1130,295.3c-77.47-65.29-156.19-94.66-157-95a13,13,0,0,1,9-24.41c3.36,1.23,83.19,30.93,164.13,98.93C1193.8,315,1231.87,360.1,1259.22,409c34.32,61.37,51.73,128.75,51.73,200.26A13,13,0,0,1,1297.95,622.27Z"/><path class="cls-1" d="M894.07,897a64.53,64.53,0,1,1,64.53-64.53A64.61,64.61,0,0,1,894.07,897Zm0-103.07a38.53,38.53,0,1,0,38.53,38.53A38.58,38.58,0,0,0,894.07,793.9Z"/><path class="cls-1" d="M236.61,897a64.53,64.53,0,1,1,64.53-64.53A64.61,64.61,0,0,1,236.61,897Zm0-103.07a38.53,38.53,0,1,0,38.53,38.53A38.58,38.58,0,0,0,236.61,793.9Z"/><path class="cls-1" d="M687.22,848.78h-303a13,13,0,1,1,0-26h303a13,13,0,0,1,0,26Z"/><path class="cls-1" d="M1047.34,1297a13,13,0,0,1-5.79-24.65c1-.52,62.16-31.46,122.32-94.57,35.24-37,63.29-77.6,83.37-120.79,25-53.81,37.71-111.85,37.71-172.51a13,13,0,0,1,26,0c0,64.68-13.58,126.59-40.38,184-21.39,45.84-51.18,88.88-88.54,127.93-63.5,66.37-126.28,97.92-128.92,99.23A13,13,0,0,1,1047.34,1297Z"/></svg>