<svg id="Layer_1" data-name="Layer 1" xmlns="http://www.w3.org/2000/svg" viewBox="0 0 1500 1500"><defs><style>.cls-1{fill:#ed7ea1;}</style></defs><title>meat</title><path class="cls-1" d="M1336.43,375.17c-45.52-44.11-101.48-82.55-166.82-114.69-49.89-29.39-89.65-38.85-95.63-40.16q-46.53-16.58-97.6-29.66l-.65-.17q-47.41-12.12-98.3-21.13C731,143.51,612.52,146.46,608,146.58A602.57,602.57,0,0,0,373.7,1304.06a598.63,598.63,0,0,0,234.13,47.34c2.94.19,24.23,1.49,58.26,1.49A1461.33,1461.33,0,0,0,871,1338.31c85.72-12.36,164.71-32.15,234.77-58.81,87.94-33.46,162-77.92,220.21-132.14,107.45-100.13,161.92-234.16,161.92-398.36C1487.92,598.35,1437,472.58,1336.43,375.17Zm-24,757.5c-56.23,52.42-128,95.49-213.46,128-68.63,26.14-146.13,45.57-230.33,57.75-34.26,5-66.88,8.29-96.71,10.49A603,603,0,0,0,1210.61,749a10,10,0,0,0-20,0A582.39,582.39,0,1,1,869.32,228.25a588,588,0,0,1,200.19,165.17,10,10,0,1,0,15.83-12.22,608.07,608.07,0,0,0-207-170.82,599.4,599.4,0,0,0-77.39-32.3c23.32,2.91,48,6.54,73.48,11.05q49.81,8.81,96.28,20.71c7,2.69,82.24,32.22,156.36,94.65,45.22,38.09,81.22,80.81,107,127,32.09,57.5,48.36,120.65,48.36,187.71a10,10,0,0,0,20,0c0-70.64-17.19-137.19-51.09-197.79-27-48.34-64.68-93-111.88-132.62a613.68,613.68,0,0,0-62.91-46.25q16.28,6,32,12.38,26.52,10.86,51.2,23a398.46,398.46,0,0,1,42.57,28.91A405.6,405.6,0,0,1,1303,422c33.25,56.55,54.93,123.3,64.45,198.4a10,10,0,0,0,19.84-2.51c-9.86-77.8-32.42-147.11-67-206A434.53,434.53,0,0,0,1275,348.62a547.27,547.27,0,0,1,47.57,41c45.67,44.27,81,95.13,105.14,151.18,26.69,62.09,40.22,132.15,40.22,208.23,0,83.3-14.55,159.17-43.26,225.49C1398.89,1034,1361.12,1087.27,1312.41,1132.67Z"/><path class="cls-1" d="M1003.28,353.9A557,557,0,1,0,1123,531.5,556.87,556.87,0,0,0,1003.28,353.9ZM1104.6,958.69A540.55,540.55,0,1,1,1146.93,749,537,537,0,0,1,1104.6,958.69Z"/></svg>